<svg id="Logo" data-name="Layer 1" xmlns="http://www.w3.org/2000/svg" viewBox="0 0 1024 1021"><defs><style>.cls-1{fill:#1877f2;}.cls-2{fill:#fff;}</style></defs><path class="cls-1" d="M1024,515C1024,232.23,794.77,3,512,3S0,232.23,0,515c0,255.55,187.23,467.37,432,505.78V663H302V515H432V402.2C432,273.88,508.44,203,625.39,203c56,0,114.61,10,114.61,10V339H675.44c-63.6,0-83.44,39.47-83.44,80v96H734L711.3,663H592v357.78C836.77,982.37,1024,770.55,1024,515Z" transform="translate(0 -3)"/><path class="cls-2" d="M711.3,660,734,512H592V416c0-40.49,19.84-80,83.44-80H740V210s-58.59-10-114.61-10C508.44,200,432,270.88,432,399.2V512H302V660H432v357.78a517.58,517.58,0,0,0,160,0V660Z" transform="translate(0 -3)"/></svg>