<?xml version="1.0" ?><svg height="128" id="svg8" version="1.1" viewBox="0 0 33.866666 33.866668" width="128" xmlns="http://www.w3.org/2000/svg" xmlns:cc="http://creativecommons.org/ns#" xmlns:dc="http://purl.org/dc/elements/1.1/" xmlns:inkscape="http://www.inkscape.org/namespaces/inkscape" xmlns:rdf="http://www.w3.org/1999/02/22-rdf-syntax-ns#" xmlns:sodipodi="http://sodipodi.sourceforge.net/DTD/sodipodi-0.dtd" xmlns:svg="http://www.w3.org/2000/svg" xmlns:xlink="http://www.w3.org/1999/xlink"><defs id="defs2"><linearGradient id="linearGradient2202"><stop id="stop2198" offset="0" style="stop-color:#f6f600;stop-opacity:1;"/><stop id="stop2200" offset="1" style="stop-color:#f69134;stop-opacity:1"/></linearGradient><linearGradient gradientTransform="matrix(0.39352029,0,0,0.39352035,-185.27183,93.82285)" gradientUnits="userSpaceOnUse" id="linearGradient3363" x1="12.262755" x2="12.262755" xlink:href="#linearGradient2202" y1="9.0164375" y2="14.680936"/><clipPath clipPathUnits="userSpaceOnUse" id="clipPath5369"><rect height="62.674702" id="rect5371" rx="1.3229166" ry="1.3229166" style="fill:#ffb93f;fill-opacity:1;stroke:none;stroke-width:4.49792;stroke-linecap:butt;stroke-miterlimit:4;stroke-dasharray:none;stroke-dashoffset:0;stroke-opacity:1;paint-order:fill markers stroke" width="75.958" x="58.55875" y="-39.475708"/></clipPath></defs><g id="layer1"><path d="m 23.292707,2.080708 -5.118625,0.00149 v 21.131956 c 0,1.819208 -1.086068,3.442016 -2.766797,4.138197 -1.680732,0.696181 -3.594268,0.314947 -4.880643,-0.97143 C 9.2402671,25.094548 8.8590321,23.179008 9.5552129,21.498279 10.251394,19.817549 11.874201,18.733982 13.69341,18.733982 h 1.655378 V 13.614857 H 13.69341 c -3.8752026,0 -7.3848746,2.345847 -8.8678502,5.926066 -1.4829758,3.580219 -0.6598344,7.720552 2.0803475,10.460733 2.7401813,2.740182 6.8810137,3.563323 10.4612327,2.080347 3.580221,-1.482976 5.925567,-4.992647 5.925567,-8.867849 V 11.496513 c 1.393643,0.830338 3.039939,1.439894 5.064628,1.439894 h 2.558311 V 7.8157876 h -2.558311 c -2.878705,0 -3.659181,-1.1708691 -4.342682,-2.6568054 C 23.331802,3.6744592 23.292707,2.080708 23.292707,2.080708 Z" id="path5550" style="color:#000000;font-style:normal;font-variant:normal;font-weight:normal;font-stretch:normal;font-size:medium;line-height:normal;font-family:sans-serif;font-variant-ligatures:normal;font-variant-position:normal;font-variant-caps:normal;font-variant-numeric:normal;font-variant-alternates:normal;font-variant-east-asian:normal;font-feature-settings:normal;font-variation-settings:normal;text-indent:0;text-align:start;text-decoration:none;text-decoration-line:none;text-decoration-style:solid;text-decoration-color:#000000;letter-spacing:normal;word-spacing:normal;text-transform:none;writing-mode:lr-tb;direction:ltr;text-orientation:mixed;dominant-baseline:auto;baseline-shift:baseline;text-anchor:start;white-space:normal;shape-padding:0;shape-margin:0;inline-size:0;clip-rule:nonzero;display:inline;overflow:visible;visibility:visible;opacity:1;isolation:auto;mix-blend-mode:normal;color-interpolation:sRGB;color-interpolation-filters:linearRGB;solid-color:#000000;solid-opacity:1;vector-effect:none;fill:#ff005d;fill-opacity:1;fill-rule:nonzero;stroke:none;stroke-width:0.967489;stroke-linecap:square;stroke-linejoin:miter;stroke-miterlimit:0;stroke-dasharray:none;stroke-dashoffset:0;stroke-opacity:1;paint-order:fill markers stroke;color-rendering:auto;image-rendering:auto;shape-rendering:auto;text-rendering:auto;enable-background:accumulate;stop-color:#000000;stop-opacity:1"/><path d="m 22.268781,1.056783 -5.118625,0.0015 v 21.131951 c 0,1.819208 -1.086068,3.442016 -2.766797,4.138196 -1.680731,0.696183 -3.594267,0.314947 -4.8806423,-0.971429 C 8.2163422,24.070627 7.3224768,22.155089 8.0186577,20.47436 8.7148389,18.793629 10.87899,17.090454 12.669484,17.412406 l 1.655379,0.297656 v -5.119125 h -1.655379 c -3.875202,0 -7.3848737,2.345846 -8.8678492,5.926066 -1.4829757,3.580219 -0.6598344,7.720551 2.0803474,10.460733 2.7401814,2.740182 6.3665188,2.955285 9.9467388,1.472309 3.58022,-1.482976 5.422546,-4.762769 5.598161,-8.633988 L 21.988148,9.4436043 c 1.393643,0.8303397 3.322203,1.8510007 5.328725,2.1216167 l 2.574848,0.347266 -0.810291,-2.5363153 0.810284,-0.9968383 7e-6,-1.5874707 h -2.558312 c -2.878705,0 -3.65918,-1.1708692 -4.342681,-2.6568054 C 22.307876,2.6505343 22.268781,1.056783 22.268781,1.056783 Z" id="path5526" style="color:#000000;font-style:normal;font-variant:normal;font-weight:normal;font-stretch:normal;font-size:medium;line-height:normal;font-family:sans-serif;font-variant-ligatures:normal;font-variant-position:normal;font-variant-caps:normal;font-variant-numeric:normal;font-variant-alternates:normal;font-variant-east-asian:normal;font-feature-settings:normal;font-variation-settings:normal;text-indent:0;text-align:start;text-decoration:none;text-decoration-line:none;text-decoration-style:solid;text-decoration-color:#000000;letter-spacing:normal;word-spacing:normal;text-transform:none;writing-mode:lr-tb;direction:ltr;text-orientation:mixed;dominant-baseline:auto;baseline-shift:baseline;text-anchor:start;white-space:normal;shape-padding:0;shape-margin:0;inline-size:0;clip-rule:nonzero;display:inline;overflow:visible;visibility:visible;opacity:1;isolation:auto;mix-blend-mode:normal;color-interpolation:sRGB;color-interpolation-filters:linearRGB;solid-color:#000000;solid-opacity:1;vector-effect:none;fill:#00e0ff;fill-opacity:1;fill-rule:nonzero;stroke:none;stroke-width:0.967489;stroke-linecap:square;stroke-linejoin:miter;stroke-miterlimit:0;stroke-dasharray:none;stroke-dashoffset:0;stroke-opacity:1;paint-order:fill markers stroke;color-rendering:auto;image-rendering:auto;shape-rendering:auto;text-rendering:auto;enable-background:accumulate;stop-color:#000000;stop-opacity:1"/><path d="M 85.023438 9.9960938 L 70.820312 10 L 70.820312 89.869141 C 70.820312 96.744887 66.715643 102.87853 60.363281 105.50977 C 54.010912 108.14101 46.777909 106.69978 41.916016 101.83789 C 40.88581 100.80769 40.019546 99.665799 39.302734 98.453125 C 38.089187 97.735903 36.947286 96.869162 35.916016 95.837891 C 31.054128 90.976005 29.612906 83.735174 32.244141 77.382812 C 34.875377 71.030443 41.009015 66.935547 47.884766 66.935547 L 54.140625 66.935547 L 54.140625 53.587891 L 53.884766 53.587891 C 39.238329 53.587891 25.974087 62.454788 20.369141 75.986328 C 15.311905 88.195571 17.352044 102.12595 25.40625 112.33984 C 35.621127 120.39899 49.557284 122.44325 61.769531 117.38477 C 75.301071 111.77982 84.166016 98.51557 84.166016 83.869141 L 84.166016 39.582031 C 89.433328 42.720324 95.654277 45.023437 103.30664 45.023438 L 112.97656 45.023438 L 112.97656 31.669922 L 109.30664 31.669922 C 100.01799 31.669922 96.513267 28.440094 94.078125 24.001953 C 90.288339 22.215879 88.517891 19.158103 86.894531 15.628906 C 86.011239 13.708626 85.428352 11.755058 85.023438 9.9960938 z " id="path5558" style="color:#000000;font-style:normal;font-variant:normal;font-weight:normal;font-stretch:normal;font-size:medium;line-height:normal;font-family:sans-serif;font-variant-ligatures:normal;font-variant-position:normal;font-variant-caps:normal;font-variant-numeric:normal;font-variant-alternates:normal;font-variant-east-asian:normal;font-feature-settings:normal;font-variation-settings:normal;text-indent:0;text-align:start;text-decoration:none;text-decoration-line:none;text-decoration-style:solid;text-decoration-color:#000000;letter-spacing:normal;word-spacing:normal;text-transform:none;writing-mode:lr-tb;direction:ltr;text-orientation:mixed;dominant-baseline:auto;baseline-shift:baseline;text-anchor:start;white-space:normal;shape-padding:0;shape-margin:0;inline-size:0;clip-rule:nonzero;display:inline;overflow:visible;visibility:visible;opacity:1;isolation:auto;mix-blend-mode:normal;color-interpolation:sRGB;color-interpolation-filters:linearRGB;solid-color:#000000;solid-opacity:1;vector-effect:none;fill:#59586e;fill-opacity:1;fill-rule:nonzero;stroke:none;stroke-width:3.65665;stroke-linecap:square;stroke-linejoin:miter;stroke-miterlimit:0;stroke-dasharray:none;stroke-dashoffset:0;stroke-opacity:1;paint-order:fill markers stroke;color-rendering:auto;image-rendering:auto;shape-rendering:auto;text-rendering:auto;enable-background:accumulate;stop-color:#000000;stop-opacity:1" transform="scale(0.26458333)"/></g></svg>